<svg class="main-svg" xmlns="http://www.w3.org/2000/svg" xmlns:xlink="http://www.w3.org/1999/xlink" width="700" height="400" style="" viewBox="0 0 700 400"><rect x="0" y="0" width="700" height="400" style="fill: rgb(0, 0, 0); fill-opacity: 0;"/><defs id="defs-8ab266"><g class="clips"><clipPath id="clip8ab266xyplot" class="plotclip"><rect width="99.36000000000001" height="220"/></clipPath><clipPath id="clip8ab266x2y2plot" class="plotclip"><rect width="99.36" height="220"/></clipPath><clipPath id="clip8ab266x3y3plot" class="plotclip"><rect width="99.36000000000003" height="220"/></clipPath><clipPath id="clip8ab266x4y4plot" class="plotclip"><rect width="99.36000000000003" height="220"/></clipPath><clipPath id="clip8ab266x5y5plot" class="plotclip"><rect width="99.35999999999997" height="220"/></clipPath><clipPath class="axesclip" id="clip8ab266x"><rect x="80" y="0" width="99.36000000000001" height="400"/></clipPath><clipPath class="axesclip" id="clip8ab266y"><rect x="0" y="100" width="700" height="220"/></clipPath><clipPath class="axesclip" id="clip8ab266xy"><rect x="80" y="100" width="99.36000000000001" height="220"/></clipPath><clipPath class="axesclip" id="clip8ab266y2"><rect x="0" y="100" width="700" height="220"/></clipPath><clipPath class="axesclip" id="clip8ab266xy2"><rect x="80" y="100" width="99.36000000000001" height="220"/></clipPath><clipPath class="axesclip" id="clip8ab266y3"><rect x="0" y="100" width="700" height="220"/></clipPath><clipPath class="axesclip" id="clip8ab266xy3"><rect x="80" y="100" width="99.36000000000001" height="220"/></clipPath><clipPath class="axesclip" id="clip8ab266y4"><rect x="0" y="100" width="700" height="220"/></clipPath><clipPath class="axesclip" id="clip8ab266xy4"><rect x="80" y="100" width="99.36000000000001" height="220"/></clipPath><clipPath class="axesclip" id="clip8ab266y5"><rect x="0" y="100" width="700" height="220"/></clipPath><clipPath class="axesclip" id="clip8ab266xy5"><rect x="80" y="100" width="99.36000000000001" height="220"/></clipPath><clipPath class="axesclip" id="clip8ab266x2"><rect x="190.16000000000003" y="0" width="99.36" height="400"/></clipPath><clipPath class="axesclip" id="clip8ab266x2y"><rect x="190.16000000000003" y="100" width="99.36" height="220"/></clipPath><clipPath class="axesclip" id="clip8ab266x2y2"><rect x="190.16000000000003" y="100" width="99.36" height="220"/></clipPath><clipPath class="axesclip" id="clip8ab266x2y3"><rect x="190.16000000000003" y="100" width="99.36" height="220"/></clipPath><clipPath class="axesclip" id="clip8ab266x2y4"><rect x="190.16000000000003" y="100" width="99.36" height="220"/></clipPath><clipPath class="axesclip" id="clip8ab266x2y5"><rect x="190.16000000000003" y="100" width="99.36" height="220"/></clipPath><clipPath class="axesclip" id="clip8ab266x3"><rect x="300.32000000000005" y="0" width="99.36000000000003" height="400"/></clipPath><clipPath class="axesclip" id="clip8ab266x3y"><rect x="300.32000000000005" y="100" width="99.36000000000003" height="220"/></clipPath><clipPath class="axesclip" id="clip8ab266x3y2"><rect x="300.32000000000005" y="100" width="99.36000000000003" height="220"/></clipPath><clipPath class="axesclip" id="clip8ab266x3y3"><rect x="300.32000000000005" y="100" width="99.36000000000003" height="220"/></clipPath><clipPath class="axesclip" id="clip8ab266x3y4"><rect x="300.32000000000005" y="100" width="99.36000000000003" height="220"/></clipPath><clipPath class="axesclip" id="clip8ab266x3y5"><rect x="300.32000000000005" y="100" width="99.36000000000003" height="220"/></clipPath><clipPath class="axesclip" id="clip8ab266x4"><rect x="410.4800000000001" y="0" width="99.36000000000003" height="400"/></clipPath><clipPath class="axesclip" id="clip8ab266x4y"><rect x="410.4800000000001" y="100" width="99.36000000000003" height="220"/></clipPath><clipPath class="axesclip" id="clip8ab266x4y2"><rect x="410.4800000000001" y="100" width="99.36000000000003" height="220"/></clipPath><clipPath class="axesclip" id="clip8ab266x4y3"><rect x="410.4800000000001" y="100" width="99.36000000000003" height="220"/></clipPath><clipPath class="axesclip" id="clip8ab266x4y4"><rect x="410.4800000000001" y="100" width="99.36000000000003" height="220"/></clipPath><clipPath class="axesclip" id="clip8ab266x4y5"><rect x="410.4800000000001" y="100" width="99.36000000000003" height="220"/></clipPath><clipPath class="axesclip" id="clip8ab266x5"><rect x="520.6400000000001" y="0" width="99.35999999999997" height="400"/></clipPath><clipPath class="axesclip" id="clip8ab266x5y"><rect x="520.6400000000001" y="100" width="99.35999999999997" height="220"/></clipPath><clipPath class="axesclip" id="clip8ab266x5y2"><rect x="520.6400000000001" y="100" width="99.35999999999997" height="220"/></clipPath><clipPath class="axesclip" id="clip8ab266x5y3"><rect x="520.6400000000001" y="100" width="99.35999999999997" height="220"/></clipPath><clipPath class="axesclip" id="clip8ab266x5y4"><rect x="520.6400000000001" y="100" width="99.35999999999997" height="220"/></clipPath><clipPath class="axesclip" id="clip8ab266x5y5"><rect x="520.6400000000001" y="100" width="99.35999999999997" height="220"/></clipPath></g><g class="gradients"/><g class="patterns"/></defs><g class="bglayer"><rect class="bg" x="80" y="100" width="99.36000000000001" height="220" style="fill: rgb(229, 236, 246); fill-opacity: 1; stroke-width: 0;"/><rect class="bg" x="190.16000000000003" y="100" width="99.36" height="220" style="fill: rgb(229, 236, 246); fill-opacity: 1; stroke-width: 0;"/><rect class="bg" x="300.32000000000005" y="100" width="99.36000000000003" height="220" style="fill: rgb(229, 236, 246); fill-opacity: 1; stroke-width: 0;"/><rect class="bg" x="410.4800000000001" y="100" width="99.36000000000003" height="220" style="fill: rgb(229, 236, 246); fill-opacity: 1; stroke-width: 0;"/><rect class="bg" x="520.6400000000001" y="100" width="99.35999999999997" height="220" style="fill: rgb(229, 236, 246); fill-opacity: 1; stroke-width: 0;"/></g><g class="layer-below"><g class="imagelayer"/><g class="shapelayer"/></g><g class="cartesianlayer"><g class="subplot xy"><g class="layer-subplot"><g class="shapelayer"/><g class="imagelayer"/></g><g class="minor-gridlayer"><g class="x"/><g class="y"/></g><g class="gridlayer"><g class="x"/><g class="y"><path class="ygrid crisp" transform="translate(0,317.53999999999996)" d="M80,0h99.36000000000001" style="stroke: rgb(255, 255, 255); stroke-opacity: 1; stroke-width: 1px;"/><path class="ygrid crisp" transform="translate(0,262.43)" d="M80,0h99.36000000000001" style="stroke: rgb(255, 255, 255); stroke-opacity: 1; stroke-width: 1px;"/><path class="ygrid crisp" transform="translate(0,207.31)" d="M80,0h99.36000000000001" style="stroke: rgb(255, 255, 255); stroke-opacity: 1; stroke-width: 1px;"/><path class="ygrid crisp" transform="translate(0,152.2)" d="M80,0h99.36000000000001" style="stroke: rgb(255, 255, 255); stroke-opacity: 1; stroke-width: 1px;"/></g></g><g class="zerolinelayer"/><path class="xlines-below"/><path class="ylines-below"/><g class="overlines-below"/><g class="xaxislayer-below"/><g class="yaxislayer-below"/><g class="overaxes-below"/><g class="plot" transform="translate(80,100)" clip-path="url(#clip8ab266xyplot)"><g class="boxlayer mlayer"><g class="trace boxes" style="opacity: 1;"><path class="box" d="M18.96,60.26H28.11M18.96,78.87H28.11V48.48H18.96ZM23.54,78.87V124.18M23.54,48.48V21.25M21.25,124.18H25.83M21.25,21.25H25.83" style="vector-effect: none; stroke-width: 2px; stroke: rgb(103, 0, 31); stroke-opacity: 1; fill: rgb(103, 0, 31); fill-opacity: 0.5;"/><g class="points"><path class="point" transform="translate(23.54,209)" d="M3,0A3,3 0 1,1 0,-3A3,3 0 0,1 3,0Z" style="opacity: 1; stroke-width: 0px; fill: rgb(103, 0, 31); fill-opacity: 1;"/><path class="point" transform="translate(23.54,152.78)" d="M3,0A3,3 0 1,1 0,-3A3,3 0 0,1 3,0Z" style="opacity: 1; stroke-width: 0px; fill: rgb(103, 0, 31); fill-opacity: 1;"/><path class="point" transform="translate(23.54,148.79)" d="M3,0A3,3 0 1,1 0,-3A3,3 0 0,1 3,0Z" style="opacity: 1; stroke-width: 0px; fill: rgb(103, 0, 31); fill-opacity: 1;"/><path class="point" transform="translate(23.54,136.06)" d="M3,0A3,3 0 1,1 0,-3A3,3 0 0,1 3,0Z" style="opacity: 1; stroke-width: 0px; fill: rgb(103, 0, 31); fill-opacity: 1;"/><path class="point" transform="translate(23.54,133.47)" d="M3,0A3,3 0 1,1 0,-3A3,3 0 0,1 3,0Z" style="opacity: 1; stroke-width: 0px; fill: rgb(103, 0, 31); fill-opacity: 1;"/><path class="point" transform="translate(23.54,129.25)" d="M3,0A3,3 0 1,1 0,-3A3,3 0 0,1 3,0Z" style="opacity: 1; stroke-width: 0px; fill: rgb(103, 0, 31); fill-opacity: 1;"/><path class="point" transform="translate(23.54,128.17)" d="M3,0A3,3 0 1,1 0,-3A3,3 0 0,1 3,0Z" style="opacity: 1; stroke-width: 0px; fill: rgb(103, 0, 31); fill-opacity: 1;"/></g></g></g></g><g class="overplot"/><path class="xlines-above crisp" d="M0,0" style="fill: none;"/><path class="ylines-above crisp" d="M0,0" style="fill: none;"/><g class="overlines-above"/><g class="xaxislayer-above"><g class="xtick"><text text-anchor="middle" x="0" y="333" transform="translate(129.68,0)" style="font-family: 'Open Sans', verdana, arial, sans-serif; font-size: 12px; fill: rgb(42, 63, 95); fill-opacity: 1; white-space: pre; opacity: 1;"> </text></g></g><g class="yaxislayer-above"><g class="ytick"><text text-anchor="end" x="79" y="4.199999999999999" transform="translate(0,317.53999999999996)" style="font-family: 'Open Sans', verdana, arial, sans-serif; font-size: 12px; fill: rgb(42, 63, 95); fill-opacity: 1; white-space: pre; opacity: 1;">20</text></g><g class="ytick"><text text-anchor="end" x="79" y="4.199999999999999" style="font-family: 'Open Sans', verdana, arial, sans-serif; font-size: 12px; fill: rgb(42, 63, 95); fill-opacity: 1; white-space: pre; opacity: 1;" transform="translate(0,262.43)">40</text></g><g class="ytick"><text text-anchor="end" x="79" y="4.199999999999999" style="font-family: 'Open Sans', verdana, arial, sans-serif; font-size: 12px; fill: rgb(42, 63, 95); fill-opacity: 1; white-space: pre; opacity: 1;" transform="translate(0,207.31)">60</text></g><g class="ytick"><text text-anchor="end" x="79" y="4.199999999999999" style="font-family: 'Open Sans', verdana, arial, sans-serif; font-size: 12px; fill: rgb(42, 63, 95); fill-opacity: 1; white-space: pre; opacity: 1;" transform="translate(0,152.2)">80</text></g></g><g class="overaxes-above"/></g><g class="subplot x2y2"><g class="layer-subplot"><g class="shapelayer"/><g class="imagelayer"/></g><g class="minor-gridlayer"><g class="x2"/><g class="y2"/></g><g class="gridlayer"><g class="x2"/><g class="y2"><path class="y2grid crisp" transform="translate(0,317.53999999999996)" d="M190.16000000000003,0h99.36" style="stroke: rgb(255, 255, 255); stroke-opacity: 1; stroke-width: 1px;"/><path class="y2grid crisp" transform="translate(0,262.43)" d="M190.16000000000003,0h99.36" style="stroke: rgb(255, 255, 255); stroke-opacity: 1; stroke-width: 1px;"/><path class="y2grid crisp" transform="translate(0,207.31)" d="M190.16000000000003,0h99.36" style="stroke: rgb(255, 255, 255); stroke-opacity: 1; stroke-width: 1px;"/><path class="y2grid crisp" transform="translate(0,152.2)" d="M190.16000000000003,0h99.36" style="stroke: rgb(255, 255, 255); stroke-opacity: 1; stroke-width: 1px;"/></g></g><g class="zerolinelayer"/><path class="xlines-below"/><path class="ylines-below"/><g class="overlines-below"/><g class="xaxislayer-below"/><g class="yaxislayer-below"/><g class="overaxes-below"/><g class="plot" transform="translate(190.16000000000003,100)" clip-path="url(#clip8ab266x2y2plot)"><g class="boxlayer mlayer"><g class="trace boxes" style="opacity: 1;"><path class="box" d="M32.03,62.26H41.18M32.03,76.27H41.18V50.95H32.03ZM36.61,76.27V114.06M36.61,50.95V18.14M34.32,114.06H38.9M34.32,18.14H38.9" style="vector-effect: none; stroke-width: 2px; stroke: rgb(178, 24, 43); stroke-opacity: 1; fill: rgb(178, 24, 43); fill-opacity: 0.5;"/><g class="points"><path class="point" transform="translate(36.61,127.6)" d="M3,0A3,3 0 1,1 0,-3A3,3 0 0,1 3,0Z" style="opacity: 1; stroke-width: 0px; fill: rgb(178, 24, 43); fill-opacity: 1;"/><path class="point" transform="translate(36.61,122.97)" d="M3,0A3,3 0 1,1 0,-3A3,3 0 0,1 3,0Z" style="opacity: 1; stroke-width: 0px; fill: rgb(178, 24, 43); fill-opacity: 1;"/><path class="point" transform="translate(36.61,12.93)" d="M3,0A3,3 0 1,1 0,-3A3,3 0 0,1 3,0Z" style="opacity: 1; stroke-width: 0px; fill: rgb(178, 24, 43); fill-opacity: 1;"/><path class="point" transform="translate(36.61,11.14)" d="M3,0A3,3 0 1,1 0,-3A3,3 0 0,1 3,0Z" style="opacity: 1; stroke-width: 0px; fill: rgb(178, 24, 43); fill-opacity: 1;"/></g></g></g></g><g class="overplot"/><path class="xlines-above crisp" d="M0,0" style="fill: none;"/><path class="ylines-above crisp" d="M0,0" style="fill: none;"/><g class="overlines-above"/><g class="xaxislayer-above"><g class="x2tick"><text text-anchor="middle" x="0" y="333" transform="translate(239.84000000000003,0)" style="font-family: 'Open Sans', verdana, arial, sans-serif; font-size: 12px; fill: rgb(42, 63, 95); fill-opacity: 1; white-space: pre; opacity: 1;"> </text></g></g><g class="yaxislayer-above"/><g class="overaxes-above"/></g><g class="subplot x3y3"><g class="layer-subplot"><g class="shapelayer"/><g class="imagelayer"/></g><g class="minor-gridlayer"><g class="x3"/><g class="y3"/></g><g class="gridlayer"><g class="x3"/><g class="y3"><path class="y3grid crisp" transform="translate(0,317.53999999999996)" d="M300.32000000000005,0h99.36000000000003" style="stroke: rgb(255, 255, 255); stroke-opacity: 1; stroke-width: 1px;"/><path class="y3grid crisp" transform="translate(0,262.43)" d="M300.32000000000005,0h99.36000000000003" style="stroke: rgb(255, 255, 255); stroke-opacity: 1; stroke-width: 1px;"/><path class="y3grid crisp" transform="translate(0,207.31)" d="M300.32000000000005,0h99.36000000000003" style="stroke: rgb(255, 255, 255); stroke-opacity: 1; stroke-width: 1px;"/><path class="y3grid crisp" transform="translate(0,152.2)" d="M300.32000000000005,0h99.36000000000003" style="stroke: rgb(255, 255, 255); stroke-opacity: 1; stroke-width: 1px;"/></g></g><g class="zerolinelayer"/><path class="xlines-below"/><path class="ylines-below"/><g class="overlines-below"/><g class="xaxislayer-below"/><g class="yaxislayer-below"/><g class="overaxes-below"/><g class="plot" transform="translate(300.32000000000005,100)" clip-path="url(#clip8ab266x3y3plot)"><g class="boxlayer mlayer"><g class="trace boxes" style="opacity: 1;"><path class="box" d="M45.11,87.47H54.25M45.11,98.61H54.25V63.21H45.11ZM49.68,98.61V118.09M49.68,63.21V11M47.39,118.09H51.97M47.39,11H51.97" style="vector-effect: none; stroke-width: 2px; stroke: rgb(214, 96, 77); stroke-opacity: 1; fill: rgb(214, 96, 77); fill-opacity: 0.5;"/><g class="points"/></g></g></g><g class="overplot"/><path class="xlines-above crisp" d="M0,0" style="fill: none;"/><path class="ylines-above crisp" d="M0,0" style="fill: none;"/><g class="overlines-above"/><g class="xaxislayer-above"><g class="x3tick"><text text-anchor="middle" x="0" y="333" transform="translate(350.00000000000006,0)" style="font-family: 'Open Sans', verdana, arial, sans-serif; font-size: 12px; fill: rgb(42, 63, 95); fill-opacity: 1; white-space: pre; opacity: 1;"> </text></g></g><g class="yaxislayer-above"/><g class="overaxes-above"/></g><g class="subplot x4y4"><g class="layer-subplot"><g class="shapelayer"/><g class="imagelayer"/></g><g class="minor-gridlayer"><g class="x4"/><g class="y4"/></g><g class="gridlayer"><g class="x4"/><g class="y4"><path class="y4grid crisp" transform="translate(0,317.53999999999996)" d="M410.4800000000001,0h99.36000000000003" style="stroke: rgb(255, 255, 255); stroke-opacity: 1; stroke-width: 1px;"/><path class="y4grid crisp" transform="translate(0,262.43)" d="M410.4800000000001,0h99.36000000000003" style="stroke: rgb(255, 255, 255); stroke-opacity: 1; stroke-width: 1px;"/><path class="y4grid crisp" transform="translate(0,207.31)" d="M410.4800000000001,0h99.36000000000003" style="stroke: rgb(255, 255, 255); stroke-opacity: 1; stroke-width: 1px;"/><path class="y4grid crisp" transform="translate(0,152.2)" d="M410.4800000000001,0h99.36000000000003" style="stroke: rgb(255, 255, 255); stroke-opacity: 1; stroke-width: 1px;"/></g></g><g class="zerolinelayer"/><path class="xlines-below"/><path class="ylines-below"/><g class="overlines-below"/><g class="xaxislayer-below"/><g class="yaxislayer-below"/><g class="overaxes-below"/><g class="plot" transform="translate(410.4800000000001,100)" clip-path="url(#clip8ab266x4y4plot)"><g class="boxlayer mlayer"><g class="trace boxes" style="opacity: 1;"><path class="box" d="M58.18,75.43H67.33M58.18,122.25H67.33V49.95H58.18ZM62.75,122.25V138.87M62.75,49.95V19.82M60.46,138.87H65.04M60.46,19.82H65.04" style="vector-effect: none; stroke-width: 2px; stroke: rgb(244, 165, 130); stroke-opacity: 1; fill: rgb(244, 165, 130); fill-opacity: 0.5;"/><g class="points"/></g></g></g><g class="overplot"/><path class="xlines-above crisp" d="M0,0" style="fill: none;"/><path class="ylines-above crisp" d="M0,0" style="fill: none;"/><g class="overlines-above"/><g class="xaxislayer-above"><g class="x4tick"><text text-anchor="middle" x="0" y="333" transform="translate(460.1600000000001,0)" style="font-family: 'Open Sans', verdana, arial, sans-serif; font-size: 12px; fill: rgb(42, 63, 95); fill-opacity: 1; white-space: pre; opacity: 1;"> </text></g></g><g class="yaxislayer-above"/><g class="overaxes-above"/></g><g class="subplot x5y5"><g class="layer-subplot"><g class="shapelayer"/><g class="imagelayer"/></g><g class="minor-gridlayer"><g class="x5"/><g class="y5"/></g><g class="gridlayer"><g class="x5"/><g class="y5"><path class="y5grid crisp" transform="translate(0,317.53999999999996)" d="M520.6400000000001,0h99.35999999999997" style="stroke: rgb(255, 255, 255); stroke-opacity: 1; stroke-width: 1px;"/><path class="y5grid crisp" transform="translate(0,262.43)" d="M520.6400000000001,0h99.35999999999997" style="stroke: rgb(255, 255, 255); stroke-opacity: 1; stroke-width: 1px;"/><path class="y5grid crisp" transform="translate(0,207.31)" d="M520.6400000000001,0h99.35999999999997" style="stroke: rgb(255, 255, 255); stroke-opacity: 1; stroke-width: 1px;"/><path class="y5grid crisp" transform="translate(0,152.2)" d="M520.6400000000001,0h99.35999999999997" style="stroke: rgb(255, 255, 255); stroke-opacity: 1; stroke-width: 1px;"/></g></g><g class="zerolinelayer"/><path class="xlines-below"/><path class="ylines-below"/><g class="overlines-below"/><g class="xaxislayer-below"/><g class="yaxislayer-below"/><g class="overaxes-below"/><g class="plot" transform="translate(520.6400000000001,100)" clip-path="url(#clip8ab266x5y5plot)"><g class="boxlayer mlayer"><g class="trace boxes" style="opacity: 1;"><path class="box" d="M71.25,101.03H80.4M71.25,159.21H80.4V96.26H71.25ZM75.82,159.21V178.6M75.82,96.26V94.66M73.53,178.6H78.11M73.53,94.66H78.11" style="vector-effect: none; stroke-width: 2px; stroke: rgb(253, 219, 199); stroke-opacity: 1; fill: rgb(253, 219, 199); fill-opacity: 0.5;"/><g class="points"/></g></g></g><g class="overplot"/><path class="xlines-above crisp" d="M0,0" style="fill: none;"/><path class="ylines-above crisp" d="M0,0" style="fill: none;"/><g class="overlines-above"/><g class="xaxislayer-above"><g class="x5tick"><text text-anchor="middle" x="0" y="333" transform="translate(570.32,0)" style="font-family: 'Open Sans', verdana, arial, sans-serif; font-size: 12px; fill: rgb(42, 63, 95); fill-opacity: 1; white-space: pre; opacity: 1;"> </text></g></g><g class="yaxislayer-above"/><g class="overaxes-above"/></g></g><g class="polarlayer"/><g class="smithlayer"/><g class="ternarylayer"/><g class="geolayer"/><g class="funnelarealayer"/><g class="pielayer"/><g class="iciclelayer"/><g class="treemaplayer"/><g class="sunburstlayer"/><g class="glimages"/><defs id="topdefs-8ab266"><g class="clips"/></defs><g class="layer-above"><g class="imagelayer"/><g class="shapelayer"/></g><g class="infolayer"><g class="g-gtitle"><text class="gtitle" x="350" y="50" text-anchor="middle" dy="0em" style="font-family: 'Open Sans', verdana, arial, sans-serif; font-size: 17px; fill: rgb(42, 63, 95); opacity: 1; font-weight: normal; white-space: pre;"><tspan style="font-weight:bold">CONSISTENCY</tspan></text></g><g class="g-xtitle"/><g class="g-x2title"/><g class="g-x3title"/><g class="g-x4title"/><g class="g-x5title"/><g class="g-ytitle"><text class="ytitle" transform="rotate(-90,41.340625,210)" x="41.340625" y="210" text-anchor="middle" style="font-family: 'Open Sans', verdana, arial, sans-serif; font-size: 14px; fill: rgb(42, 63, 95); opacity: 1; font-weight: normal; white-space: pre;">consistency</text></g><g class="g-y2title"/><g class="g-y3title"/><g class="g-y4title"/><g class="g-y5title"/><g class="annotation" data-index="0" style="opacity: 1;"><g class="annotation-text-g" transform="rotate(0,129.68,91)"><g class="cursor-pointer" transform="translate(116,82)"><rect class="bg" x="0.5" y="0.5" width="26" height="17" style="stroke-width: 1px; stroke: rgb(0, 0, 0); stroke-opacity: 0; fill: rgb(0, 0, 0); fill-opacity: 0;"/><text class="annotation-text" text-anchor="middle" x="13.34375" y="13" style="font-family: 'Open Sans', verdana, arial, sans-serif; font-size: 12px; fill: rgb(42, 63, 95); fill-opacity: 1; white-space: pre;">time</text></g></g></g><g class="annotation" data-index="1" style="opacity: 1;"><g class="annotation-text-g" transform="rotate(0,239.84000000000003,91)"><g class="cursor-pointer" transform="translate(221,82)"><rect class="bg" x="0.5" y="0.5" width="36" height="17" style="stroke-width: 1px; stroke: rgb(0, 0, 0); stroke-opacity: 0; fill: rgb(0, 0, 0); fill-opacity: 0;"/><text class="annotation-text" text-anchor="middle" x="19.015625" y="13" style="font-family: 'Open Sans', verdana, arial, sans-serif; font-size: 12px; fill: rgb(42, 63, 95); fill-opacity: 1; white-space: pre;">words</text></g></g></g><g class="annotation" data-index="2" style="opacity: 1;"><g class="annotation-text-g" transform="rotate(0,350,91)"><g class="cursor-pointer" transform="translate(333,82)"><rect class="bg" x="0.5" y="0.5" width="33" height="17" style="stroke-width: 1px; stroke: rgb(0, 0, 0); stroke-opacity: 0; fill: rgb(0, 0, 0); fill-opacity: 0;"/><text class="annotation-text" text-anchor="middle" x="17.015625" y="13" style="font-family: 'Open Sans', verdana, arial, sans-serif; font-size: 12px; fill: rgb(42, 63, 95); fill-opacity: 1; white-space: pre;">quote</text></g></g></g><g class="annotation" data-index="3" style="opacity: 1;"><g class="annotation-text-g" transform="rotate(0,460.1600000000001,91)"><g class="cursor-pointer" transform="translate(439,82)"><rect class="bg" x="0.5" y="0.5" width="42" height="17" style="stroke-width: 1px; stroke: rgb(0, 0, 0); stroke-opacity: 0; fill: rgb(0, 0, 0); fill-opacity: 0;"/><text class="annotation-text" text-anchor="middle" x="21.34375" y="13" style="font-family: 'Open Sans', verdana, arial, sans-serif; font-size: 12px; fill: rgb(42, 63, 95); fill-opacity: 1; white-space: pre;">custom</text></g></g></g><g class="annotation" data-index="4" style="opacity: 1;"><g class="annotation-text-g" transform="rotate(0,570.3199999999999,91)"><g class="cursor-pointer" transform="translate(559,82)"><rect class="bg" x="0.5" y="0.5" width="22" height="17" style="stroke-width: 1px; stroke: rgb(0, 0, 0); stroke-opacity: 0; fill: rgb(0, 0, 0); fill-opacity: 0;"/><text class="annotation-text" text-anchor="middle" x="11.6875" y="13" style="font-family: 'Open Sans', verdana, arial, sans-serif; font-size: 12px; fill: rgb(42, 63, 95); fill-opacity: 1; white-space: pre;">zen</text></g></g></g></g></svg>