<?xml version="1.0" encoding="utf-8" standalone="no"?>
<!DOCTYPE svg PUBLIC "-//W3C//DTD SVG 1.1//EN"
  "http://www.w3.org/Graphics/SVG/1.1/DTD/svg11.dtd">
<svg xmlns:xlink="http://www.w3.org/1999/xlink" width="288pt" height="288pt" viewBox="0 0 288 288" xmlns="http://www.w3.org/2000/svg" version="1.1">
 <metadata>
  <rdf:RDF xmlns:dc="http://purl.org/dc/elements/1.1/" xmlns:cc="http://creativecommons.org/ns#" xmlns:rdf="http://www.w3.org/1999/02/22-rdf-syntax-ns#">
   <cc:Work>
    <dc:type rdf:resource="http://purl.org/dc/dcmitype/StillImage"/>
    <dc:date>2023-05-27T07:56:37.560917</dc:date>
    <dc:format>image/svg+xml</dc:format>
    <dc:creator>
     <cc:Agent>
      <dc:title>Matplotlib v3.7.1, https://matplotlib.org/</dc:title>
     </cc:Agent>
    </dc:creator>
   </cc:Work>
  </rdf:RDF>
 </metadata>
 <defs>
  <style type="text/css">*{stroke-linejoin: round; stroke-linecap: butt}</style>
 </defs>
 <g id="figure_1">
  <g id="patch_1">
   <path d="M 0 288 
L 288 288 
L 288 0 
L 0 0 
z
" style="fill: #ffffff"/>
  </g>
  <g id="axes_1">
   <g id="patch_2">
    <path d="M 36 256.32 
L 259.2 256.32 
L 259.2 34.56 
L 36 34.56 
z
" style="fill: #ffffff"/>
   </g>
   <g id="PathCollection_1">
    <defs>
     <path id="m885c49b82c" d="M -3 0 
L 3 0 
M 0 3 
L 0 -3 
" style="stroke: #0000ff; stroke-opacity: 0.75; stroke-width: 1.5"/>
    </defs>
    <g clip-path="url(#p47b040bde5)">
     <use xlink:href="#m885c49b82c" x="99.569597" y="206.329401" style="fill: #0000ff; fill-opacity: 0.75; stroke: #0000ff; stroke-opacity: 0.75; stroke-width: 1.5"/>
     <use xlink:href="#m885c49b82c" x="110.835155" y="209.62865" style="fill: #0000ff; fill-opacity: 0.75; stroke: #0000ff; stroke-opacity: 0.75; stroke-width: 1.5"/>
     <use xlink:href="#m885c49b82c" x="82.102206" y="182.042042" style="fill: #0000ff; fill-opacity: 0.75; stroke: #0000ff; stroke-opacity: 0.75; stroke-width: 1.5"/>
     <use xlink:href="#m885c49b82c" x="109.592227" y="199.454323" style="fill: #0000ff; fill-opacity: 0.75; stroke: #0000ff; stroke-opacity: 0.75; stroke-width: 1.5"/>
     <use xlink:href="#m885c49b82c" x="84.917436" y="221.581852" style="fill: #0000ff; fill-opacity: 0.75; stroke: #0000ff; stroke-opacity: 0.75; stroke-width: 1.5"/>
     <use xlink:href="#m885c49b82c" x="91.574087" y="212.055417" style="fill: #0000ff; fill-opacity: 0.75; stroke: #0000ff; stroke-opacity: 0.75; stroke-width: 1.5"/>
     <use xlink:href="#m885c49b82c" x="85.07546" y="218.192988" style="fill: #0000ff; fill-opacity: 0.75; stroke: #0000ff; stroke-opacity: 0.75; stroke-width: 1.5"/>
     <use xlink:href="#m885c49b82c" x="63.933091" y="173.80704" style="fill: #0000ff; fill-opacity: 0.75; stroke: #0000ff; stroke-opacity: 0.75; stroke-width: 1.5"/>
     <use xlink:href="#m885c49b82c" x="77.646333" y="199.227506" style="fill: #0000ff; fill-opacity: 0.75; stroke: #0000ff; stroke-opacity: 0.75; stroke-width: 1.5"/>
     <use xlink:href="#m885c49b82c" x="75.749176" y="175.144799" style="fill: #0000ff; fill-opacity: 0.75; stroke: #0000ff; stroke-opacity: 0.75; stroke-width: 1.5"/>
     <use xlink:href="#m885c49b82c" x="111.514788" y="197.912781" style="fill: #0000ff; fill-opacity: 0.75; stroke: #0000ff; stroke-opacity: 0.75; stroke-width: 1.5"/>
     <use xlink:href="#m885c49b82c" x="76.290845" y="216.954222" style="fill: #0000ff; fill-opacity: 0.75; stroke: #0000ff; stroke-opacity: 0.75; stroke-width: 1.5"/>
     <use xlink:href="#m885c49b82c" x="106.349377" y="233.629596" style="fill: #0000ff; fill-opacity: 0.75; stroke: #0000ff; stroke-opacity: 0.75; stroke-width: 1.5"/>
     <use xlink:href="#m885c49b82c" x="81.145427" y="203.607232" style="fill: #0000ff; fill-opacity: 0.75; stroke: #0000ff; stroke-opacity: 0.75; stroke-width: 1.5"/>
     <use xlink:href="#m885c49b82c" x="95.279988" y="211.39616" style="fill: #0000ff; fill-opacity: 0.75; stroke: #0000ff; stroke-opacity: 0.75; stroke-width: 1.5"/>
     <use xlink:href="#m885c49b82c" x="61.768919" y="215.95065" style="fill: #0000ff; fill-opacity: 0.75; stroke: #0000ff; stroke-opacity: 0.75; stroke-width: 1.5"/>
     <use xlink:href="#m885c49b82c" x="105.983936" y="196.242681" style="fill: #0000ff; fill-opacity: 0.75; stroke: #0000ff; stroke-opacity: 0.75; stroke-width: 1.5"/>
     <use xlink:href="#m885c49b82c" x="86.344861" y="233.027465" style="fill: #0000ff; fill-opacity: 0.75; stroke: #0000ff; stroke-opacity: 0.75; stroke-width: 1.5"/>
     <use xlink:href="#m885c49b82c" x="72.351958" y="208.096129" style="fill: #0000ff; fill-opacity: 0.75; stroke: #0000ff; stroke-opacity: 0.75; stroke-width: 1.5"/>
     <use xlink:href="#m885c49b82c" x="72.677946" y="203.660272" style="fill: #0000ff; fill-opacity: 0.75; stroke: #0000ff; stroke-opacity: 0.75; stroke-width: 1.5"/>
    </g>
   </g>
   <g id="PathCollection_2">
    <defs>
     <path id="m0a9b746821" d="M -3 3 
L 3 3 
L 3 -3 
L -3 -3 
z
" style="stroke: #ff0000; stroke-opacity: 0.75"/>
    </defs>
    <g clip-path="url(#p47b040bde5)">
     <use xlink:href="#m0a9b746821" x="134.531102" y="174.751101" style="fill: #ff0000; fill-opacity: 0.75; stroke: #ff0000; stroke-opacity: 0.75"/>
     <use xlink:href="#m0a9b746821" x="147.803029" y="164.772643" style="fill: #ff0000; fill-opacity: 0.75; stroke: #ff0000; stroke-opacity: 0.75"/>
     <use xlink:href="#m0a9b746821" x="138.806963" y="190.212534" style="fill: #ff0000; fill-opacity: 0.75; stroke: #ff0000; stroke-opacity: 0.75"/>
     <use xlink:href="#m0a9b746821" x="125.160529" y="147.192233" style="fill: #ff0000; fill-opacity: 0.75; stroke: #ff0000; stroke-opacity: 0.75"/>
     <use xlink:href="#m0a9b746821" x="121.69133" y="162.233039" style="fill: #ff0000; fill-opacity: 0.75; stroke: #ff0000; stroke-opacity: 0.75"/>
     <use xlink:href="#m0a9b746821" x="104.03923" y="154.696516" style="fill: #ff0000; fill-opacity: 0.75; stroke: #ff0000; stroke-opacity: 0.75"/>
     <use xlink:href="#m0a9b746821" x="104.981469" y="175.155744" style="fill: #ff0000; fill-opacity: 0.75; stroke: #ff0000; stroke-opacity: 0.75"/>
     <use xlink:href="#m0a9b746821" x="123.556294" y="152.44672" style="fill: #ff0000; fill-opacity: 0.75; stroke: #ff0000; stroke-opacity: 0.75"/>
     <use xlink:href="#m0a9b746821" x="154.21767" y="135.364619" style="fill: #ff0000; fill-opacity: 0.75; stroke: #ff0000; stroke-opacity: 0.75"/>
     <use xlink:href="#m0a9b746821" x="95.745181" y="153.939725" style="fill: #ff0000; fill-opacity: 0.75; stroke: #ff0000; stroke-opacity: 0.75"/>
     <use xlink:href="#m0a9b746821" x="101.029426" y="125.146414" style="fill: #ff0000; fill-opacity: 0.75; stroke: #ff0000; stroke-opacity: 0.75"/>
     <use xlink:href="#m0a9b746821" x="142.625003" y="177.859016" style="fill: #ff0000; fill-opacity: 0.75; stroke: #ff0000; stroke-opacity: 0.75"/>
     <use xlink:href="#m0a9b746821" x="127.729164" y="149.395832" style="fill: #ff0000; fill-opacity: 0.75; stroke: #ff0000; stroke-opacity: 0.75"/>
     <use xlink:href="#m0a9b746821" x="105.194135" y="177.996068" style="fill: #ff0000; fill-opacity: 0.75; stroke: #ff0000; stroke-opacity: 0.75"/>
     <use xlink:href="#m0a9b746821" x="117.885536" y="143.687772" style="fill: #ff0000; fill-opacity: 0.75; stroke: #ff0000; stroke-opacity: 0.75"/>
     <use xlink:href="#m0a9b746821" x="97.33465" y="126.114692" style="fill: #ff0000; fill-opacity: 0.75; stroke: #ff0000; stroke-opacity: 0.75"/>
     <use xlink:href="#m0a9b746821" x="132.875002" y="185.748058" style="fill: #ff0000; fill-opacity: 0.75; stroke: #ff0000; stroke-opacity: 0.75"/>
     <use xlink:href="#m0a9b746821" x="137.296563" y="163.985879" style="fill: #ff0000; fill-opacity: 0.75; stroke: #ff0000; stroke-opacity: 0.75"/>
     <use xlink:href="#m0a9b746821" x="131.222773" y="156.731538" style="fill: #ff0000; fill-opacity: 0.75; stroke: #ff0000; stroke-opacity: 0.75"/>
     <use xlink:href="#m0a9b746821" x="135.430645" y="184.472272" style="fill: #ff0000; fill-opacity: 0.75; stroke: #ff0000; stroke-opacity: 0.75"/>
    </g>
   </g>
   <g id="PathCollection_3">
    <defs>
     <path id="mc188735555" d="M 0 -3 
L -3 3 
L 3 3 
z
" style="stroke: #ffa500; stroke-opacity: 0.75"/>
    </defs>
    <g clip-path="url(#p47b040bde5)">
     <use xlink:href="#mc188735555" x="134.663731" y="117.578263" style="fill: #ffa500; fill-opacity: 0.75; stroke: #ffa500; stroke-opacity: 0.75"/>
     <use xlink:href="#mc188735555" x="157.430996" y="139.629384" style="fill: #ffa500; fill-opacity: 0.75; stroke: #ffa500; stroke-opacity: 0.75"/>
     <use xlink:href="#mc188735555" x="190.18683" y="113.901776" style="fill: #ffa500; fill-opacity: 0.75; stroke: #ffa500; stroke-opacity: 0.75"/>
     <use xlink:href="#mc188735555" x="153.66709" y="122.221502" style="fill: #ffa500; fill-opacity: 0.75; stroke: #ffa500; stroke-opacity: 0.75"/>
     <use xlink:href="#mc188735555" x="163.597374" y="144.178295" style="fill: #ffa500; fill-opacity: 0.75; stroke: #ffa500; stroke-opacity: 0.75"/>
     <use xlink:href="#mc188735555" x="139.830308" y="105.392178" style="fill: #ffa500; fill-opacity: 0.75; stroke: #ffa500; stroke-opacity: 0.75"/>
     <use xlink:href="#mc188735555" x="145.64831" y="112.829535" style="fill: #ffa500; fill-opacity: 0.75; stroke: #ffa500; stroke-opacity: 0.75"/>
     <use xlink:href="#mc188735555" x="188.873663" y="101.672783" style="fill: #ffa500; fill-opacity: 0.75; stroke: #ffa500; stroke-opacity: 0.75"/>
     <use xlink:href="#mc188735555" x="143.596354" y="129.06107" style="fill: #ffa500; fill-opacity: 0.75; stroke: #ffa500; stroke-opacity: 0.75"/>
     <use xlink:href="#mc188735555" x="165.387989" y="102.34442" style="fill: #ffa500; fill-opacity: 0.75; stroke: #ffa500; stroke-opacity: 0.75"/>
     <use xlink:href="#mc188735555" x="153.540692" y="99.442069" style="fill: #ffa500; fill-opacity: 0.75; stroke: #ffa500; stroke-opacity: 0.75"/>
     <use xlink:href="#mc188735555" x="178.955675" y="108.340253" style="fill: #ffa500; fill-opacity: 0.75; stroke: #ffa500; stroke-opacity: 0.75"/>
     <use xlink:href="#mc188735555" x="147.772808" y="131.81098" style="fill: #ffa500; fill-opacity: 0.75; stroke: #ffa500; stroke-opacity: 0.75"/>
     <use xlink:href="#mc188735555" x="177.714542" y="98.211969" style="fill: #ffa500; fill-opacity: 0.75; stroke: #ffa500; stroke-opacity: 0.75"/>
     <use xlink:href="#mc188735555" x="126.303382" y="81.816793" style="fill: #ffa500; fill-opacity: 0.75; stroke: #ffa500; stroke-opacity: 0.75"/>
     <use xlink:href="#mc188735555" x="143.833548" y="120.762803" style="fill: #ffa500; fill-opacity: 0.75; stroke: #ffa500; stroke-opacity: 0.75"/>
     <use xlink:href="#mc188735555" x="151.52949" y="124.073991" style="fill: #ffa500; fill-opacity: 0.75; stroke: #ffa500; stroke-opacity: 0.75"/>
     <use xlink:href="#mc188735555" x="134.820252" y="132.720381" style="fill: #ffa500; fill-opacity: 0.75; stroke: #ffa500; stroke-opacity: 0.75"/>
     <use xlink:href="#mc188735555" x="131.551975" y="117.371185" style="fill: #ffa500; fill-opacity: 0.75; stroke: #ffa500; stroke-opacity: 0.75"/>
     <use xlink:href="#mc188735555" x="170.07224" y="85.005751" style="fill: #ffa500; fill-opacity: 0.75; stroke: #ffa500; stroke-opacity: 0.75"/>
    </g>
   </g>
   <g id="PathCollection_4">
    <defs>
     <path id="m4cac0f5d5c" d="M -3 3 
L 3 -3 
M -3 -3 
L 3 3 
" style="stroke: #008000; stroke-opacity: 0.75; stroke-width: 1.5"/>
    </defs>
    <g clip-path="url(#p47b040bde5)">
     <use xlink:href="#m4cac0f5d5c" x="234.401088" y="166.827369" style="fill: #008000; fill-opacity: 0.75; stroke: #008000; stroke-opacity: 0.75; stroke-width: 1.5"/>
     <use xlink:href="#m4cac0f5d5c" x="199.910507" y="182.599416" style="fill: #008000; fill-opacity: 0.75; stroke: #008000; stroke-opacity: 0.75; stroke-width: 1.5"/>
     <use xlink:href="#m4cac0f5d5c" x="226.825974" y="166.658786" style="fill: #008000; fill-opacity: 0.75; stroke: #008000; stroke-opacity: 0.75; stroke-width: 1.5"/>
     <use xlink:href="#m4cac0f5d5c" x="232.772525" y="212.722326" style="fill: #008000; fill-opacity: 0.75; stroke: #008000; stroke-opacity: 0.75; stroke-width: 1.5"/>
     <use xlink:href="#m4cac0f5d5c" x="198.082538" y="174.037033" style="fill: #008000; fill-opacity: 0.75; stroke: #008000; stroke-opacity: 0.75; stroke-width: 1.5"/>
     <use xlink:href="#m4cac0f5d5c" x="184.636729" y="211.462991" style="fill: #008000; fill-opacity: 0.75; stroke: #008000; stroke-opacity: 0.75; stroke-width: 1.5"/>
     <use xlink:href="#m4cac0f5d5c" x="211.394577" y="213.401203" style="fill: #008000; fill-opacity: 0.75; stroke: #008000; stroke-opacity: 0.75; stroke-width: 1.5"/>
     <use xlink:href="#m4cac0f5d5c" x="214.615571" y="162.837604" style="fill: #008000; fill-opacity: 0.75; stroke: #008000; stroke-opacity: 0.75; stroke-width: 1.5"/>
     <use xlink:href="#m4cac0f5d5c" x="207.833298" y="154.425561" style="fill: #008000; fill-opacity: 0.75; stroke: #008000; stroke-opacity: 0.75; stroke-width: 1.5"/>
     <use xlink:href="#m4cac0f5d5c" x="171.768883" y="208.683632" style="fill: #008000; fill-opacity: 0.75; stroke: #008000; stroke-opacity: 0.75; stroke-width: 1.5"/>
     <use xlink:href="#m4cac0f5d5c" x="226.31883" y="169.40548" style="fill: #008000; fill-opacity: 0.75; stroke: #008000; stroke-opacity: 0.75; stroke-width: 1.5"/>
     <use xlink:href="#m4cac0f5d5c" x="221.525987" y="168.802086" style="fill: #008000; fill-opacity: 0.75; stroke: #008000; stroke-opacity: 0.75; stroke-width: 1.5"/>
     <use xlink:href="#m4cac0f5d5c" x="184.676713" y="173.373332" style="fill: #008000; fill-opacity: 0.75; stroke: #008000; stroke-opacity: 0.75; stroke-width: 1.5"/>
     <use xlink:href="#m4cac0f5d5c" x="217.745014" y="165.971619" style="fill: #008000; fill-opacity: 0.75; stroke: #008000; stroke-opacity: 0.75; stroke-width: 1.5"/>
     <use xlink:href="#m4cac0f5d5c" x="198.634198" y="185.423023" style="fill: #008000; fill-opacity: 0.75; stroke: #008000; stroke-opacity: 0.75; stroke-width: 1.5"/>
     <use xlink:href="#m4cac0f5d5c" x="198.067571" y="210.268927" style="fill: #008000; fill-opacity: 0.75; stroke: #008000; stroke-opacity: 0.75; stroke-width: 1.5"/>
     <use xlink:href="#m4cac0f5d5c" x="211.858451" y="166.467957" style="fill: #008000; fill-opacity: 0.75; stroke: #008000; stroke-opacity: 0.75; stroke-width: 1.5"/>
     <use xlink:href="#m4cac0f5d5c" x="207.810055" y="181.642984" style="fill: #008000; fill-opacity: 0.75; stroke: #008000; stroke-opacity: 0.75; stroke-width: 1.5"/>
     <use xlink:href="#m4cac0f5d5c" x="177.551952" y="155.765202" style="fill: #008000; fill-opacity: 0.75; stroke: #008000; stroke-opacity: 0.75; stroke-width: 1.5"/>
     <use xlink:href="#m4cac0f5d5c" x="191.167522" y="162.072087" style="fill: #008000; fill-opacity: 0.75; stroke: #008000; stroke-opacity: 0.75; stroke-width: 1.5"/>
    </g>
   </g>
   <g id="patch_3">
    <path d="M 155.287923 221.745785 
C 161.201342 221.745785 166.87336 219.396359 171.054779 215.21494 
C 175.236198 211.03352 177.585625 205.361503 177.585625 199.448083 
C 177.585625 193.534663 175.236198 187.862646 171.054779 183.681227 
C 166.87336 179.499807 161.201342 177.150381 155.287923 177.150381 
C 149.374503 177.150381 143.702485 179.499807 139.521066 183.681227 
C 135.339647 187.862646 132.99022 193.534663 132.99022 199.448083 
C 132.99022 205.361503 135.339647 211.03352 139.521066 215.21494 
C 143.702485 219.396359 149.374503 221.745785 155.287923 221.745785 
L 155.287923 221.745785 
z
" clip-path="url(#p47b040bde5)" style="fill: none; opacity: 0.85; stroke: #000000; stroke-linejoin: miter"/>
   </g>
   <g id="matplotlib.axis_1">
    <g id="xtick_1">
     <g id="line2d_1">
      <path d="M 36 256.32 
L 36 34.56 
" clip-path="url(#p47b040bde5)" style="fill: none; stroke-dasharray: 1.48,0.64; stroke-dashoffset: 0; stroke: #808080; stroke-width: 0.4"/>
     </g>
     <g id="line2d_2">
      <defs>
       <path id="m1d780aec98" d="M 0 0 
L 0 3.5 
" style="stroke: #000000; stroke-width: 0.8"/>
      </defs>
      <g>
       <use xlink:href="#m1d780aec98" x="36" y="256.32" style="stroke: #000000; stroke-width: 0.8"/>
      </g>
     </g>
     <g id="text_1">
      <!-- 0 -->
      <g transform="translate(33.455 269.39875) scale(0.08 -0.08)">
       <defs>
        <path id="DejaVuSans-30" d="M 2034 4250 
Q 1547 4250 1301 3770 
Q 1056 3291 1056 2328 
Q 1056 1369 1301 889 
Q 1547 409 2034 409 
Q 2525 409 2770 889 
Q 3016 1369 3016 2328 
Q 3016 3291 2770 3770 
Q 2525 4250 2034 4250 
z
M 2034 4750 
Q 2819 4750 3233 4129 
Q 3647 3509 3647 2328 
Q 3647 1150 3233 529 
Q 2819 -91 2034 -91 
Q 1250 -91 836 529 
Q 422 1150 422 2328 
Q 422 3509 836 4129 
Q 1250 4750 2034 4750 
z
" transform="scale(0.015625)"/>
       </defs>
       <use xlink:href="#DejaVuSans-30"/>
      </g>
     </g>
    </g>
    <g id="xtick_2">
     <g id="line2d_3">
      <path d="M 80.595405 256.32 
L 80.595405 34.56 
" clip-path="url(#p47b040bde5)" style="fill: none; stroke-dasharray: 1.48,0.64; stroke-dashoffset: 0; stroke: #808080; stroke-width: 0.4"/>
     </g>
     <g id="line2d_4">
      <g>
       <use xlink:href="#m1d780aec98" x="80.595405" y="256.32" style="stroke: #000000; stroke-width: 0.8"/>
      </g>
     </g>
     <g id="text_2">
      <!-- 2 -->
      <g transform="translate(78.050405 269.39875) scale(0.08 -0.08)">
       <defs>
        <path id="DejaVuSans-32" d="M 1228 531 
L 3431 531 
L 3431 0 
L 469 0 
L 469 531 
Q 828 903 1448 1529 
Q 2069 2156 2228 2338 
Q 2531 2678 2651 2914 
Q 2772 3150 2772 3378 
Q 2772 3750 2511 3984 
Q 2250 4219 1831 4219 
Q 1534 4219 1204 4116 
Q 875 4013 500 3803 
L 500 4441 
Q 881 4594 1212 4672 
Q 1544 4750 1819 4750 
Q 2544 4750 2975 4387 
Q 3406 4025 3406 3419 
Q 3406 3131 3298 2873 
Q 3191 2616 2906 2266 
Q 2828 2175 2409 1742 
Q 1991 1309 1228 531 
z
" transform="scale(0.015625)"/>
       </defs>
       <use xlink:href="#DejaVuSans-32"/>
      </g>
     </g>
    </g>
    <g id="xtick_3">
     <g id="line2d_5">
      <path d="M 125.190809 256.32 
L 125.190809 34.56 
" clip-path="url(#p47b040bde5)" style="fill: none; stroke-dasharray: 1.48,0.64; stroke-dashoffset: 0; stroke: #808080; stroke-width: 0.4"/>
     </g>
     <g id="line2d_6">
      <g>
       <use xlink:href="#m1d780aec98" x="125.190809" y="256.32" style="stroke: #000000; stroke-width: 0.8"/>
      </g>
     </g>
     <g id="text_3">
      <!-- 4 -->
      <g transform="translate(122.645809 269.39875) scale(0.08 -0.08)">
       <defs>
        <path id="DejaVuSans-34" d="M 2419 4116 
L 825 1625 
L 2419 1625 
L 2419 4116 
z
M 2253 4666 
L 3047 4666 
L 3047 1625 
L 3713 1625 
L 3713 1100 
L 3047 1100 
L 3047 0 
L 2419 0 
L 2419 1100 
L 313 1100 
L 313 1709 
L 2253 4666 
z
" transform="scale(0.015625)"/>
       </defs>
       <use xlink:href="#DejaVuSans-34"/>
      </g>
     </g>
    </g>
    <g id="xtick_4">
     <g id="line2d_7">
      <path d="M 169.786214 256.32 
L 169.786214 34.56 
" clip-path="url(#p47b040bde5)" style="fill: none; stroke-dasharray: 1.48,0.64; stroke-dashoffset: 0; stroke: #808080; stroke-width: 0.4"/>
     </g>
     <g id="line2d_8">
      <g>
       <use xlink:href="#m1d780aec98" x="169.786214" y="256.32" style="stroke: #000000; stroke-width: 0.8"/>
      </g>
     </g>
     <g id="text_4">
      <!-- 6 -->
      <g transform="translate(167.241214 269.39875) scale(0.08 -0.08)">
       <defs>
        <path id="DejaVuSans-36" d="M 2113 2584 
Q 1688 2584 1439 2293 
Q 1191 2003 1191 1497 
Q 1191 994 1439 701 
Q 1688 409 2113 409 
Q 2538 409 2786 701 
Q 3034 994 3034 1497 
Q 3034 2003 2786 2293 
Q 2538 2584 2113 2584 
z
M 3366 4563 
L 3366 3988 
Q 3128 4100 2886 4159 
Q 2644 4219 2406 4219 
Q 1781 4219 1451 3797 
Q 1122 3375 1075 2522 
Q 1259 2794 1537 2939 
Q 1816 3084 2150 3084 
Q 2853 3084 3261 2657 
Q 3669 2231 3669 1497 
Q 3669 778 3244 343 
Q 2819 -91 2113 -91 
Q 1303 -91 875 529 
Q 447 1150 447 2328 
Q 447 3434 972 4092 
Q 1497 4750 2381 4750 
Q 2619 4750 2861 4703 
Q 3103 4656 3366 4563 
z
" transform="scale(0.015625)"/>
       </defs>
       <use xlink:href="#DejaVuSans-36"/>
      </g>
     </g>
    </g>
    <g id="xtick_5">
     <g id="line2d_9">
      <path d="M 214.381618 256.32 
L 214.381618 34.56 
" clip-path="url(#p47b040bde5)" style="fill: none; stroke-dasharray: 1.48,0.64; stroke-dashoffset: 0; stroke: #808080; stroke-width: 0.4"/>
     </g>
     <g id="line2d_10">
      <g>
       <use xlink:href="#m1d780aec98" x="214.381618" y="256.32" style="stroke: #000000; stroke-width: 0.8"/>
      </g>
     </g>
     <g id="text_5">
      <!-- 8 -->
      <g transform="translate(211.836618 269.39875) scale(0.08 -0.08)">
       <defs>
        <path id="DejaVuSans-38" d="M 2034 2216 
Q 1584 2216 1326 1975 
Q 1069 1734 1069 1313 
Q 1069 891 1326 650 
Q 1584 409 2034 409 
Q 2484 409 2743 651 
Q 3003 894 3003 1313 
Q 3003 1734 2745 1975 
Q 2488 2216 2034 2216 
z
M 1403 2484 
Q 997 2584 770 2862 
Q 544 3141 544 3541 
Q 544 4100 942 4425 
Q 1341 4750 2034 4750 
Q 2731 4750 3128 4425 
Q 3525 4100 3525 3541 
Q 3525 3141 3298 2862 
Q 3072 2584 2669 2484 
Q 3125 2378 3379 2068 
Q 3634 1759 3634 1313 
Q 3634 634 3220 271 
Q 2806 -91 2034 -91 
Q 1263 -91 848 271 
Q 434 634 434 1313 
Q 434 1759 690 2068 
Q 947 2378 1403 2484 
z
M 1172 3481 
Q 1172 3119 1398 2916 
Q 1625 2713 2034 2713 
Q 2441 2713 2670 2916 
Q 2900 3119 2900 3481 
Q 2900 3844 2670 4047 
Q 2441 4250 2034 4250 
Q 1625 4250 1398 4047 
Q 1172 3844 1172 3481 
z
" transform="scale(0.015625)"/>
       </defs>
       <use xlink:href="#DejaVuSans-38"/>
      </g>
     </g>
    </g>
    <g id="xtick_6">
     <g id="line2d_11">
      <path d="M 258.977023 256.32 
L 258.977023 34.56 
" clip-path="url(#p47b040bde5)" style="fill: none; stroke-dasharray: 1.48,0.64; stroke-dashoffset: 0; stroke: #808080; stroke-width: 0.4"/>
     </g>
     <g id="line2d_12">
      <g>
       <use xlink:href="#m1d780aec98" x="258.977023" y="256.32" style="stroke: #000000; stroke-width: 0.8"/>
      </g>
     </g>
     <g id="text_6">
      <!-- 10 -->
      <g transform="translate(253.887023 269.39875) scale(0.08 -0.08)">
       <defs>
        <path id="DejaVuSans-31" d="M 794 531 
L 1825 531 
L 1825 4091 
L 703 3866 
L 703 4441 
L 1819 4666 
L 2450 4666 
L 2450 531 
L 3481 531 
L 3481 0 
L 794 0 
L 794 531 
z
" transform="scale(0.015625)"/>
       </defs>
       <use xlink:href="#DejaVuSans-31"/>
       <use xlink:href="#DejaVuSans-30" x="63.623047"/>
      </g>
     </g>
    </g>
   </g>
   <g id="matplotlib.axis_2">
    <g id="ytick_1">
     <g id="line2d_13">
      <path d="M 36 213.447992 
L 259.2 213.447992 
" clip-path="url(#p47b040bde5)" style="fill: none; stroke-dasharray: 1.48,0.64; stroke-dashoffset: 0; stroke: #808080; stroke-width: 0.4"/>
     </g>
     <g id="line2d_14">
      <defs>
       <path id="m7b9464b6fd" d="M 0 0 
L -3.5 0 
" style="stroke: #000000; stroke-width: 0.8"/>
      </defs>
      <g>
       <use xlink:href="#m7b9464b6fd" x="36" y="213.447992" style="stroke: #000000; stroke-width: 0.8"/>
      </g>
     </g>
     <g id="text_7">
      <!-- 2 -->
      <g transform="translate(23.91 216.487367) scale(0.08 -0.08)">
       <use xlink:href="#DejaVuSans-32"/>
      </g>
     </g>
    </g>
    <g id="ytick_2">
     <g id="line2d_15">
      <path d="M 36 168.852587 
L 259.2 168.852587 
" clip-path="url(#p47b040bde5)" style="fill: none; stroke-dasharray: 1.48,0.64; stroke-dashoffset: 0; stroke: #808080; stroke-width: 0.4"/>
     </g>
     <g id="line2d_16">
      <g>
       <use xlink:href="#m7b9464b6fd" x="36" y="168.852587" style="stroke: #000000; stroke-width: 0.8"/>
      </g>
     </g>
     <g id="text_8">
      <!-- 4 -->
      <g transform="translate(23.91 171.891962) scale(0.08 -0.08)">
       <use xlink:href="#DejaVuSans-34"/>
      </g>
     </g>
    </g>
    <g id="ytick_3">
     <g id="line2d_17">
      <path d="M 36 124.257183 
L 259.2 124.257183 
" clip-path="url(#p47b040bde5)" style="fill: none; stroke-dasharray: 1.48,0.64; stroke-dashoffset: 0; stroke: #808080; stroke-width: 0.4"/>
     </g>
     <g id="line2d_18">
      <g>
       <use xlink:href="#m7b9464b6fd" x="36" y="124.257183" style="stroke: #000000; stroke-width: 0.8"/>
      </g>
     </g>
     <g id="text_9">
      <!-- 6 -->
      <g transform="translate(23.91 127.296558) scale(0.08 -0.08)">
       <use xlink:href="#DejaVuSans-36"/>
      </g>
     </g>
    </g>
    <g id="ytick_4">
     <g id="line2d_19">
      <path d="M 36 79.661778 
L 259.2 79.661778 
" clip-path="url(#p47b040bde5)" style="fill: none; stroke-dasharray: 1.48,0.64; stroke-dashoffset: 0; stroke: #808080; stroke-width: 0.4"/>
     </g>
     <g id="line2d_20">
      <g>
       <use xlink:href="#m7b9464b6fd" x="36" y="79.661778" style="stroke: #000000; stroke-width: 0.8"/>
      </g>
     </g>
     <g id="text_10">
      <!-- 8 -->
      <g transform="translate(23.91 82.701153) scale(0.08 -0.08)">
       <use xlink:href="#DejaVuSans-38"/>
      </g>
     </g>
    </g>
    <g id="ytick_5">
     <g id="line2d_21">
      <path d="M 36 35.066374 
L 259.2 35.066374 
" clip-path="url(#p47b040bde5)" style="fill: none; stroke-dasharray: 1.48,0.64; stroke-dashoffset: 0; stroke: #808080; stroke-width: 0.4"/>
     </g>
     <g id="line2d_22">
      <g>
       <use xlink:href="#m7b9464b6fd" x="36" y="35.066374" style="stroke: #000000; stroke-width: 0.8"/>
      </g>
     </g>
     <g id="text_11">
      <!-- 10 -->
      <g transform="translate(18.82 38.105749) scale(0.08 -0.08)">
       <use xlink:href="#DejaVuSans-31"/>
       <use xlink:href="#DejaVuSans-30" x="63.623047"/>
      </g>
     </g>
    </g>
   </g>
   <g id="line2d_23">
    <path d="M 138.806963 190.212534 
L 171.768883 208.683632 
" clip-path="url(#p47b040bde5)" style="fill: none; stroke-dasharray: 1.85,0.8; stroke-dashoffset: 0; stroke: #000000; stroke-width: 0.5"/>
   </g>
   <g id="patch_4">
    <path d="M 36 256.32 
L 36 34.56 
" style="fill: none; stroke: #000000; stroke-width: 0.8; stroke-linejoin: miter; stroke-linecap: square"/>
   </g>
   <g id="patch_5">
    <path d="M 259.2 256.32 
L 259.2 34.56 
" style="fill: none; stroke: #000000; stroke-width: 0.8; stroke-linejoin: miter; stroke-linecap: square"/>
   </g>
   <g id="patch_6">
    <path d="M 36 256.32 
L 259.2 256.32 
" style="fill: none; stroke: #000000; stroke-width: 0.8; stroke-linejoin: miter; stroke-linecap: square"/>
   </g>
   <g id="patch_7">
    <path d="M 36 34.56 
L 259.2 34.56 
" style="fill: none; stroke: #000000; stroke-width: 0.8; stroke-linejoin: miter; stroke-linecap: square"/>
   </g>
   <g id="text_12">
    <!-- $k=2$ -->
    <g transform="translate(143.47014 232.894637) scale(0.1 -0.1)">
     <defs>
      <path id="DejaVuSans-Oblique-6b" d="M 1172 4863 
L 1747 4863 
L 1197 2028 
L 3169 3500 
L 3916 3500 
L 1716 1825 
L 3322 0 
L 2625 0 
L 1131 1709 
L 800 0 
L 225 0 
L 1172 4863 
z
" transform="scale(0.015625)"/>
      <path id="DejaVuSans-3d" d="M 678 2906 
L 4684 2906 
L 4684 2381 
L 678 2381 
L 678 2906 
z
M 678 1631 
L 4684 1631 
L 4684 1100 
L 678 1100 
L 678 1631 
z
" transform="scale(0.015625)"/>
     </defs>
     <use xlink:href="#DejaVuSans-Oblique-6b" transform="translate(0 0.015625)"/>
     <use xlink:href="#DejaVuSans-3d" transform="translate(77.392578 0.015625)"/>
     <use xlink:href="#DejaVuSans-32" transform="translate(180.664062 0.015625)"/>
    </g>
   </g>
   <g id="legend_1">
    <g id="patch_8">
     <path d="M 188.52 52.7025 
L 253.6 52.7025 
Q 255.2 52.7025 255.2 51.1025 
L 255.2 40.16 
Q 255.2 38.56 253.6 38.56 
L 188.52 38.56 
Q 186.92 38.56 186.92 40.16 
L 186.92 51.1025 
Q 186.92 52.7025 188.52 52.7025 
z
" style="fill: #ffffff; opacity: 0.8; stroke: #cccccc; stroke-linejoin: miter"/>
    </g>
    <g id="PathCollection_5">
     <defs>
      <path id="mca5f4a8fe2" d="M 0 3 
C 0.795609 3 1.55874 2.683901 2.12132 2.12132 
C 2.683901 1.55874 3 0.795609 3 0 
C 3 -0.795609 2.683901 -1.55874 2.12132 -2.12132 
C 1.55874 -2.683901 0.795609 -3 0 -3 
C -0.795609 -3 -1.55874 -2.683901 -2.12132 -2.12132 
C -2.683901 -1.55874 -3 -0.795609 -3 0 
C -3 0.795609 -2.683901 1.55874 -2.12132 2.12132 
C -1.55874 2.683901 -0.795609 3 0 3 
z
" style="stroke: #ee82ee"/>
     </defs>
     <g>
      <use xlink:href="#mca5f4a8fe2" x="198.12" y="45.73875" style="fill: #ee82ee; stroke: #ee82ee"/>
     </g>
    </g>
    <g id="text_13">
     <!-- new point -->
     <g transform="translate(212.52 47.83875) scale(0.08 -0.08)">
      <defs>
       <path id="DejaVuSans-6e" d="M 3513 2113 
L 3513 0 
L 2938 0 
L 2938 2094 
Q 2938 2591 2744 2837 
Q 2550 3084 2163 3084 
Q 1697 3084 1428 2787 
Q 1159 2491 1159 1978 
L 1159 0 
L 581 0 
L 581 3500 
L 1159 3500 
L 1159 2956 
Q 1366 3272 1645 3428 
Q 1925 3584 2291 3584 
Q 2894 3584 3203 3211 
Q 3513 2838 3513 2113 
z
" transform="scale(0.015625)"/>
       <path id="DejaVuSans-65" d="M 3597 1894 
L 3597 1613 
L 953 1613 
Q 991 1019 1311 708 
Q 1631 397 2203 397 
Q 2534 397 2845 478 
Q 3156 559 3463 722 
L 3463 178 
Q 3153 47 2828 -22 
Q 2503 -91 2169 -91 
Q 1331 -91 842 396 
Q 353 884 353 1716 
Q 353 2575 817 3079 
Q 1281 3584 2069 3584 
Q 2775 3584 3186 3129 
Q 3597 2675 3597 1894 
z
M 3022 2063 
Q 3016 2534 2758 2815 
Q 2500 3097 2075 3097 
Q 1594 3097 1305 2825 
Q 1016 2553 972 2059 
L 3022 2063 
z
" transform="scale(0.015625)"/>
       <path id="DejaVuSans-77" d="M 269 3500 
L 844 3500 
L 1563 769 
L 2278 3500 
L 2956 3500 
L 3675 769 
L 4391 3500 
L 4966 3500 
L 4050 0 
L 3372 0 
L 2619 2869 
L 1863 0 
L 1184 0 
L 269 3500 
z
" transform="scale(0.015625)"/>
       <path id="DejaVuSans-20" transform="scale(0.015625)"/>
       <path id="DejaVuSans-70" d="M 1159 525 
L 1159 -1331 
L 581 -1331 
L 581 3500 
L 1159 3500 
L 1159 2969 
Q 1341 3281 1617 3432 
Q 1894 3584 2278 3584 
Q 2916 3584 3314 3078 
Q 3713 2572 3713 1747 
Q 3713 922 3314 415 
Q 2916 -91 2278 -91 
Q 1894 -91 1617 61 
Q 1341 213 1159 525 
z
M 3116 1747 
Q 3116 2381 2855 2742 
Q 2594 3103 2138 3103 
Q 1681 3103 1420 2742 
Q 1159 2381 1159 1747 
Q 1159 1113 1420 752 
Q 1681 391 2138 391 
Q 2594 391 2855 752 
Q 3116 1113 3116 1747 
z
" transform="scale(0.015625)"/>
       <path id="DejaVuSans-6f" d="M 1959 3097 
Q 1497 3097 1228 2736 
Q 959 2375 959 1747 
Q 959 1119 1226 758 
Q 1494 397 1959 397 
Q 2419 397 2687 759 
Q 2956 1122 2956 1747 
Q 2956 2369 2687 2733 
Q 2419 3097 1959 3097 
z
M 1959 3584 
Q 2709 3584 3137 3096 
Q 3566 2609 3566 1747 
Q 3566 888 3137 398 
Q 2709 -91 1959 -91 
Q 1206 -91 779 398 
Q 353 888 353 1747 
Q 353 2609 779 3096 
Q 1206 3584 1959 3584 
z
" transform="scale(0.015625)"/>
       <path id="DejaVuSans-69" d="M 603 3500 
L 1178 3500 
L 1178 0 
L 603 0 
L 603 3500 
z
M 603 4863 
L 1178 4863 
L 1178 4134 
L 603 4134 
L 603 4863 
z
" transform="scale(0.015625)"/>
       <path id="DejaVuSans-74" d="M 1172 4494 
L 1172 3500 
L 2356 3500 
L 2356 3053 
L 1172 3053 
L 1172 1153 
Q 1172 725 1289 603 
Q 1406 481 1766 481 
L 2356 481 
L 2356 0 
L 1766 0 
Q 1100 0 847 248 
Q 594 497 594 1153 
L 594 3053 
L 172 3053 
L 172 3500 
L 594 3500 
L 594 4494 
L 1172 4494 
z
" transform="scale(0.015625)"/>
      </defs>
      <use xlink:href="#DejaVuSans-6e"/>
      <use xlink:href="#DejaVuSans-65" x="63.378906"/>
      <use xlink:href="#DejaVuSans-77" x="124.902344"/>
      <use xlink:href="#DejaVuSans-20" x="206.689453"/>
      <use xlink:href="#DejaVuSans-70" x="238.476562"/>
      <use xlink:href="#DejaVuSans-6f" x="301.953125"/>
      <use xlink:href="#DejaVuSans-69" x="363.134766"/>
      <use xlink:href="#DejaVuSans-6e" x="390.917969"/>
      <use xlink:href="#DejaVuSans-74" x="454.296875"/>
     </g>
    </g>
   </g>
   <g id="PathCollection_6">
    <g clip-path="url(#p47b040bde5)">
     <use xlink:href="#mca5f4a8fe2" x="155.287923" y="199.448083" style="fill: #ee82ee; stroke: #ee82ee"/>
    </g>
   </g>
  </g>
 </g>
 <defs>
  <clipPath id="p47b040bde5">
   <rect x="36" y="34.56" width="223.2" height="221.76"/>
  </clipPath>
 </defs>
</svg>
