<svg class="main-svg" xmlns="http://www.w3.org/2000/svg" xmlns:xlink="http://www.w3.org/1999/xlink" width="700" height="400" style="" viewBox="0 0 700 400"><rect x="0" y="0" width="700" height="400" style="fill: rgb(0, 0, 0); fill-opacity: 0;"/><defs id="defs-9642fd"><g class="clips"><clipPath id="clip9642fdxyplot" class="plotclip"><rect width="99.36000000000001" height="220"/></clipPath><clipPath id="clip9642fdx2y2plot" class="plotclip"><rect width="99.36" height="220"/></clipPath><clipPath id="clip9642fdx3y3plot" class="plotclip"><rect width="99.36000000000003" height="220"/></clipPath><clipPath id="clip9642fdx4y4plot" class="plotclip"><rect width="99.36000000000003" height="220"/></clipPath><clipPath id="clip9642fdx5y5plot" class="plotclip"><rect width="99.35999999999997" height="220"/></clipPath><clipPath class="axesclip" id="clip9642fdx"><rect x="80" y="0" width="99.36000000000001" height="400"/></clipPath><clipPath class="axesclip" id="clip9642fdy"><rect x="0" y="100" width="700" height="220"/></clipPath><clipPath class="axesclip" id="clip9642fdxy"><rect x="80" y="100" width="99.36000000000001" height="220"/></clipPath><clipPath class="axesclip" id="clip9642fdy2"><rect x="0" y="100" width="700" height="220"/></clipPath><clipPath class="axesclip" id="clip9642fdxy2"><rect x="80" y="100" width="99.36000000000001" height="220"/></clipPath><clipPath class="axesclip" id="clip9642fdy3"><rect x="0" y="100" width="700" height="220"/></clipPath><clipPath class="axesclip" id="clip9642fdxy3"><rect x="80" y="100" width="99.36000000000001" height="220"/></clipPath><clipPath class="axesclip" id="clip9642fdy4"><rect x="0" y="100" width="700" height="220"/></clipPath><clipPath class="axesclip" id="clip9642fdxy4"><rect x="80" y="100" width="99.36000000000001" height="220"/></clipPath><clipPath class="axesclip" id="clip9642fdy5"><rect x="0" y="100" width="700" height="220"/></clipPath><clipPath class="axesclip" id="clip9642fdxy5"><rect x="80" y="100" width="99.36000000000001" height="220"/></clipPath><clipPath class="axesclip" id="clip9642fdx2"><rect x="190.16000000000003" y="0" width="99.36" height="400"/></clipPath><clipPath class="axesclip" id="clip9642fdx2y"><rect x="190.16000000000003" y="100" width="99.36" height="220"/></clipPath><clipPath class="axesclip" id="clip9642fdx2y2"><rect x="190.16000000000003" y="100" width="99.36" height="220"/></clipPath><clipPath class="axesclip" id="clip9642fdx2y3"><rect x="190.16000000000003" y="100" width="99.36" height="220"/></clipPath><clipPath class="axesclip" id="clip9642fdx2y4"><rect x="190.16000000000003" y="100" width="99.36" height="220"/></clipPath><clipPath class="axesclip" id="clip9642fdx2y5"><rect x="190.16000000000003" y="100" width="99.36" height="220"/></clipPath><clipPath class="axesclip" id="clip9642fdx3"><rect x="300.32000000000005" y="0" width="99.36000000000003" height="400"/></clipPath><clipPath class="axesclip" id="clip9642fdx3y"><rect x="300.32000000000005" y="100" width="99.36000000000003" height="220"/></clipPath><clipPath class="axesclip" id="clip9642fdx3y2"><rect x="300.32000000000005" y="100" width="99.36000000000003" height="220"/></clipPath><clipPath class="axesclip" id="clip9642fdx3y3"><rect x="300.32000000000005" y="100" width="99.36000000000003" height="220"/></clipPath><clipPath class="axesclip" id="clip9642fdx3y4"><rect x="300.32000000000005" y="100" width="99.36000000000003" height="220"/></clipPath><clipPath class="axesclip" id="clip9642fdx3y5"><rect x="300.32000000000005" y="100" width="99.36000000000003" height="220"/></clipPath><clipPath class="axesclip" id="clip9642fdx4"><rect x="410.4800000000001" y="0" width="99.36000000000003" height="400"/></clipPath><clipPath class="axesclip" id="clip9642fdx4y"><rect x="410.4800000000001" y="100" width="99.36000000000003" height="220"/></clipPath><clipPath class="axesclip" id="clip9642fdx4y2"><rect x="410.4800000000001" y="100" width="99.36000000000003" height="220"/></clipPath><clipPath class="axesclip" id="clip9642fdx4y3"><rect x="410.4800000000001" y="100" width="99.36000000000003" height="220"/></clipPath><clipPath class="axesclip" id="clip9642fdx4y4"><rect x="410.4800000000001" y="100" width="99.36000000000003" height="220"/></clipPath><clipPath class="axesclip" id="clip9642fdx4y5"><rect x="410.4800000000001" y="100" width="99.36000000000003" height="220"/></clipPath><clipPath class="axesclip" id="clip9642fdx5"><rect x="520.6400000000001" y="0" width="99.35999999999997" height="400"/></clipPath><clipPath class="axesclip" id="clip9642fdx5y"><rect x="520.6400000000001" y="100" width="99.35999999999997" height="220"/></clipPath><clipPath class="axesclip" id="clip9642fdx5y2"><rect x="520.6400000000001" y="100" width="99.35999999999997" height="220"/></clipPath><clipPath class="axesclip" id="clip9642fdx5y3"><rect x="520.6400000000001" y="100" width="99.35999999999997" height="220"/></clipPath><clipPath class="axesclip" id="clip9642fdx5y4"><rect x="520.6400000000001" y="100" width="99.35999999999997" height="220"/></clipPath><clipPath class="axesclip" id="clip9642fdx5y5"><rect x="520.6400000000001" y="100" width="99.35999999999997" height="220"/></clipPath></g><g class="gradients"/><g class="patterns"/></defs><g class="bglayer"><rect class="bg" x="80" y="100" width="99.36000000000001" height="220" style="fill: rgb(229, 236, 246); fill-opacity: 1; stroke-width: 0;"/><rect class="bg" x="190.16000000000003" y="100" width="99.36" height="220" style="fill: rgb(229, 236, 246); fill-opacity: 1; stroke-width: 0;"/><rect class="bg" x="300.32000000000005" y="100" width="99.36000000000003" height="220" style="fill: rgb(229, 236, 246); fill-opacity: 1; stroke-width: 0;"/><rect class="bg" x="410.4800000000001" y="100" width="99.36000000000003" height="220" style="fill: rgb(229, 236, 246); fill-opacity: 1; stroke-width: 0;"/><rect class="bg" x="520.6400000000001" y="100" width="99.35999999999997" height="220" style="fill: rgb(229, 236, 246); fill-opacity: 1; stroke-width: 0;"/></g><g class="layer-below"><g class="imagelayer"/><g class="shapelayer"/></g><g class="cartesianlayer"><g class="subplot xy"><g class="layer-subplot"><g class="shapelayer"/><g class="imagelayer"/></g><g class="minor-gridlayer"><g class="x"/><g class="y"/></g><g class="gridlayer"><g class="x"/><g class="y"><path class="ygrid crisp" transform="translate(0,264.6)" d="M80,0h99.36000000000001" style="stroke: rgb(255, 255, 255); stroke-opacity: 1; stroke-width: 1px;"/><path class="ygrid crisp" transform="translate(0,189.1)" d="M80,0h99.36000000000001" style="stroke: rgb(255, 255, 255); stroke-opacity: 1; stroke-width: 1px;"/><path class="ygrid crisp" transform="translate(0,113.6)" d="M80,0h99.36000000000001" style="stroke: rgb(255, 255, 255); stroke-opacity: 1; stroke-width: 1px;"/></g></g><g class="zerolinelayer"/><path class="xlines-below"/><path class="ylines-below"/><g class="overlines-below"/><g class="xaxislayer-below"/><g class="yaxislayer-below"/><g class="overaxes-below"/><g class="plot" transform="translate(80,100)" clip-path="url(#clip9642fdxyplot)"><g class="boxlayer mlayer"><g class="trace boxes" style="opacity: 1;"><path class="box" d="M18.96,92.17H28.11M18.96,133.83H28.11V84.37H18.96ZM23.54,133.83V194.81M23.54,84.37V57.81M21.25,194.81H25.83M21.25,57.81H25.83" style="vector-effect: none; stroke-width: 2px; stroke: rgb(103, 0, 31); stroke-opacity: 1; fill: rgb(103, 0, 31); fill-opacity: 0.5;"/><g class="points"><path class="point" transform="translate(23.54,209)" d="M3,0A3,3 0 1,1 0,-3A3,3 0 0,1 3,0Z" style="opacity: 1; stroke-width: 0px; fill: rgb(103, 0, 31); fill-opacity: 1;"/></g></g></g></g><g class="overplot"/><path class="xlines-above crisp" d="M0,0" style="fill: none;"/><path class="ylines-above crisp" d="M0,0" style="fill: none;"/><g class="overlines-above"/><g class="xaxislayer-above"><g class="xtick"><text text-anchor="middle" x="0" y="333" transform="translate(129.68,0)" style="font-family: 'Open Sans', verdana, arial, sans-serif; font-size: 12px; fill: rgb(42, 63, 95); fill-opacity: 1; white-space: pre; opacity: 1;"> </text></g></g><g class="yaxislayer-above"><g class="ytick"><text text-anchor="end" x="79" y="4.199999999999999" transform="translate(0,264.6)" style="font-family: 'Open Sans', verdana, arial, sans-serif; font-size: 12px; fill: rgb(42, 63, 95); fill-opacity: 1; white-space: pre; opacity: 1;">50</text></g><g class="ytick"><text text-anchor="end" x="79" y="4.199999999999999" style="font-family: 'Open Sans', verdana, arial, sans-serif; font-size: 12px; fill: rgb(42, 63, 95); fill-opacity: 1; white-space: pre; opacity: 1;" transform="translate(0,189.1)">100</text></g><g class="ytick"><text text-anchor="end" x="79" y="4.199999999999999" style="font-family: 'Open Sans', verdana, arial, sans-serif; font-size: 12px; fill: rgb(42, 63, 95); fill-opacity: 1; white-space: pre; opacity: 1;" transform="translate(0,113.6)">150</text></g></g><g class="overaxes-above"/></g><g class="subplot x2y2"><g class="layer-subplot"><g class="shapelayer"/><g class="imagelayer"/></g><g class="minor-gridlayer"><g class="x2"/><g class="y2"/></g><g class="gridlayer"><g class="x2"/><g class="y2"><path class="y2grid crisp" transform="translate(0,264.6)" d="M190.16000000000003,0h99.36" style="stroke: rgb(255, 255, 255); stroke-opacity: 1; stroke-width: 1px;"/><path class="y2grid crisp" transform="translate(0,189.1)" d="M190.16000000000003,0h99.36" style="stroke: rgb(255, 255, 255); stroke-opacity: 1; stroke-width: 1px;"/><path class="y2grid crisp" transform="translate(0,113.6)" d="M190.16000000000003,0h99.36" style="stroke: rgb(255, 255, 255); stroke-opacity: 1; stroke-width: 1px;"/></g></g><g class="zerolinelayer"/><path class="xlines-below"/><path class="ylines-below"/><g class="overlines-below"/><g class="xaxislayer-below"/><g class="yaxislayer-below"/><g class="overaxes-below"/><g class="plot" transform="translate(190.16000000000003,100)" clip-path="url(#clip9642fdx2y2plot)"><g class="boxlayer mlayer"><g class="trace boxes" style="opacity: 1;"><path class="box" d="M32.03,83.89H41.18M32.03,92.88H41.18V73.01H32.03ZM36.61,92.88V112.4M36.61,73.01V45.96M34.32,112.4H38.9M34.32,45.96H38.9" style="vector-effect: none; stroke-width: 2px; stroke: rgb(178, 24, 43); stroke-opacity: 1; fill: rgb(178, 24, 43); fill-opacity: 0.5;"/><g class="points"><path class="point" transform="translate(36.61,124.99)" d="M3,0A3,3 0 1,1 0,-3A3,3 0 0,1 3,0Z" style="opacity: 1; stroke-width: 0px; fill: rgb(178, 24, 43); fill-opacity: 1;"/><path class="point" transform="translate(36.61,40.58)" d="M3,0A3,3 0 1,1 0,-3A3,3 0 0,1 3,0Z" style="opacity: 1; stroke-width: 0px; fill: rgb(178, 24, 43); fill-opacity: 1;"/><path class="point" transform="translate(36.61,39.57)" d="M3,0A3,3 0 1,1 0,-3A3,3 0 0,1 3,0Z" style="opacity: 1; stroke-width: 0px; fill: rgb(178, 24, 43); fill-opacity: 1;"/><path class="point" transform="translate(36.61,37.92)" d="M3,0A3,3 0 1,1 0,-3A3,3 0 0,1 3,0Z" style="opacity: 1; stroke-width: 0px; fill: rgb(178, 24, 43); fill-opacity: 1;"/></g></g></g></g><g class="overplot"/><path class="xlines-above crisp" d="M0,0" style="fill: none;"/><path class="ylines-above crisp" d="M0,0" style="fill: none;"/><g class="overlines-above"/><g class="xaxislayer-above"><g class="x2tick"><text text-anchor="middle" x="0" y="333" transform="translate(239.84000000000003,0)" style="font-family: 'Open Sans', verdana, arial, sans-serif; font-size: 12px; fill: rgb(42, 63, 95); fill-opacity: 1; white-space: pre; opacity: 1;"> </text></g></g><g class="yaxislayer-above"/><g class="overaxes-above"/></g><g class="subplot x3y3"><g class="layer-subplot"><g class="shapelayer"/><g class="imagelayer"/></g><g class="minor-gridlayer"><g class="x3"/><g class="y3"/></g><g class="gridlayer"><g class="x3"/><g class="y3"><path class="y3grid crisp" transform="translate(0,264.6)" d="M300.32000000000005,0h99.36000000000003" style="stroke: rgb(255, 255, 255); stroke-opacity: 1; stroke-width: 1px;"/><path class="y3grid crisp" transform="translate(0,189.1)" d="M300.32000000000005,0h99.36000000000003" style="stroke: rgb(255, 255, 255); stroke-opacity: 1; stroke-width: 1px;"/><path class="y3grid crisp" transform="translate(0,113.6)" d="M300.32000000000005,0h99.36000000000003" style="stroke: rgb(255, 255, 255); stroke-opacity: 1; stroke-width: 1px;"/></g></g><g class="zerolinelayer"/><path class="xlines-below"/><path class="ylines-below"/><g class="overlines-below"/><g class="xaxislayer-below"/><g class="yaxislayer-below"/><g class="overaxes-below"/><g class="plot" transform="translate(300.32000000000005,100)" clip-path="url(#clip9642fdx3y3plot)"><g class="boxlayer mlayer"><g class="trace boxes" style="opacity: 1;"><path class="box" d="M45.11,91.67H54.25M45.11,98.62H54.25V78.37H45.11ZM49.68,98.62V122.61M49.68,78.37V55.61M47.39,122.61H51.97M47.39,55.61H51.97" style="vector-effect: none; stroke-width: 2px; stroke: rgb(214, 96, 77); stroke-opacity: 1; fill: rgb(214, 96, 77); fill-opacity: 0.5;"/><g class="points"><path class="point" transform="translate(49.68,139.43)" d="M3,0A3,3 0 1,1 0,-3A3,3 0 0,1 3,0Z" style="opacity: 1; stroke-width: 0px; fill: rgb(214, 96, 77); fill-opacity: 1;"/><path class="point" transform="translate(49.68,137.8)" d="M3,0A3,3 0 1,1 0,-3A3,3 0 0,1 3,0Z" style="opacity: 1; stroke-width: 0px; fill: rgb(214, 96, 77); fill-opacity: 1;"/><path class="point" transform="translate(49.68,43.62)" d="M3,0A3,3 0 1,1 0,-3A3,3 0 0,1 3,0Z" style="opacity: 1; stroke-width: 0px; fill: rgb(214, 96, 77); fill-opacity: 1;"/></g></g></g></g><g class="overplot"/><path class="xlines-above crisp" d="M0,0" style="fill: none;"/><path class="ylines-above crisp" d="M0,0" style="fill: none;"/><g class="overlines-above"/><g class="xaxislayer-above"><g class="x3tick"><text text-anchor="middle" x="0" y="333" transform="translate(350.00000000000006,0)" style="font-family: 'Open Sans', verdana, arial, sans-serif; font-size: 12px; fill: rgb(42, 63, 95); fill-opacity: 1; white-space: pre; opacity: 1;"> </text></g></g><g class="yaxislayer-above"/><g class="overaxes-above"/></g><g class="subplot x4y4"><g class="layer-subplot"><g class="shapelayer"/><g class="imagelayer"/></g><g class="minor-gridlayer"><g class="x4"/><g class="y4"/></g><g class="gridlayer"><g class="x4"/><g class="y4"><path class="y4grid crisp" transform="translate(0,264.6)" d="M410.4800000000001,0h99.36000000000003" style="stroke: rgb(255, 255, 255); stroke-opacity: 1; stroke-width: 1px;"/><path class="y4grid crisp" transform="translate(0,189.1)" d="M410.4800000000001,0h99.36000000000003" style="stroke: rgb(255, 255, 255); stroke-opacity: 1; stroke-width: 1px;"/><path class="y4grid crisp" transform="translate(0,113.6)" d="M410.4800000000001,0h99.36000000000003" style="stroke: rgb(255, 255, 255); stroke-opacity: 1; stroke-width: 1px;"/></g></g><g class="zerolinelayer"/><path class="xlines-below"/><path class="ylines-below"/><g class="overlines-below"/><g class="xaxislayer-below"/><g class="yaxislayer-below"/><g class="overaxes-below"/><g class="plot" transform="translate(410.4800000000001,100)" clip-path="url(#clip9642fdx4y4plot)"><g class="boxlayer mlayer"><g class="trace boxes" style="opacity: 1;"><path class="box" d="M58.18,47.34H67.33M58.18,93.4H67.33V36.59H58.18ZM62.75,93.4V107.81M62.75,36.59V11M60.46,107.81H65.04M60.46,11H65.04" style="vector-effect: none; stroke-width: 2px; stroke: rgb(244, 165, 130); stroke-opacity: 1; fill: rgb(244, 165, 130); fill-opacity: 0.5;"/><g class="points"/></g></g></g><g class="overplot"/><path class="xlines-above crisp" d="M0,0" style="fill: none;"/><path class="ylines-above crisp" d="M0,0" style="fill: none;"/><g class="overlines-above"/><g class="xaxislayer-above"><g class="x4tick"><text text-anchor="middle" x="0" y="333" transform="translate(460.1600000000001,0)" style="font-family: 'Open Sans', verdana, arial, sans-serif; font-size: 12px; fill: rgb(42, 63, 95); fill-opacity: 1; white-space: pre; opacity: 1;"> </text></g></g><g class="yaxislayer-above"/><g class="overaxes-above"/></g><g class="subplot x5y5"><g class="layer-subplot"><g class="shapelayer"/><g class="imagelayer"/></g><g class="minor-gridlayer"><g class="x5"/><g class="y5"/></g><g class="gridlayer"><g class="x5"/><g class="y5"><path class="y5grid crisp" transform="translate(0,264.6)" d="M520.6400000000001,0h99.35999999999997" style="stroke: rgb(255, 255, 255); stroke-opacity: 1; stroke-width: 1px;"/><path class="y5grid crisp" transform="translate(0,189.1)" d="M520.6400000000001,0h99.35999999999997" style="stroke: rgb(255, 255, 255); stroke-opacity: 1; stroke-width: 1px;"/><path class="y5grid crisp" transform="translate(0,113.6)" d="M520.6400000000001,0h99.35999999999997" style="stroke: rgb(255, 255, 255); stroke-opacity: 1; stroke-width: 1px;"/></g></g><g class="zerolinelayer"/><path class="xlines-below"/><path class="ylines-below"/><g class="overlines-below"/><g class="xaxislayer-below"/><g class="yaxislayer-below"/><g class="overaxes-below"/><g class="plot" transform="translate(520.6400000000001,100)" clip-path="url(#clip9642fdx5y5plot)"><g class="boxlayer mlayer"><g class="trace boxes" style="opacity: 1;"><path class="box" d="M71.25,12.12H80.4M71.25,33.68H80.4V11.12H71.25ZM75.82,33.68V41.17M75.82,11.12V11.09M73.53,41.17H78.11M73.53,11.09H78.11" style="vector-effect: none; stroke-width: 2px; stroke: rgb(253, 219, 199); stroke-opacity: 1; fill: rgb(253, 219, 199); fill-opacity: 0.5;"/><g class="points"/></g></g></g><g class="overplot"/><path class="xlines-above crisp" d="M0,0" style="fill: none;"/><path class="ylines-above crisp" d="M0,0" style="fill: none;"/><g class="overlines-above"/><g class="xaxislayer-above"><g class="x5tick"><text text-anchor="middle" x="0" y="333" transform="translate(570.32,0)" style="font-family: 'Open Sans', verdana, arial, sans-serif; font-size: 12px; fill: rgb(42, 63, 95); fill-opacity: 1; white-space: pre; opacity: 1;"> </text></g></g><g class="yaxislayer-above"/><g class="overaxes-above"/></g></g><g class="polarlayer"/><g class="smithlayer"/><g class="ternarylayer"/><g class="geolayer"/><g class="funnelarealayer"/><g class="pielayer"/><g class="iciclelayer"/><g class="treemaplayer"/><g class="sunburstlayer"/><g class="glimages"/><defs id="topdefs-9642fd"><g class="clips"/></defs><g class="layer-above"><g class="imagelayer"/><g class="shapelayer"/></g><g class="infolayer"><g class="g-gtitle"><text class="gtitle" x="350" y="50" text-anchor="middle" dy="0em" style="font-family: 'Open Sans', verdana, arial, sans-serif; font-size: 17px; fill: rgb(42, 63, 95); opacity: 1; font-weight: normal; white-space: pre;"><tspan style="font-weight:bold">WPM</tspan></text></g><g class="g-xtitle"/><g class="g-x2title"/><g class="g-x3title"/><g class="g-x4title"/><g class="g-x5title"/><g class="g-ytitle"><text class="ytitle" transform="rotate(-90,34.66875,210)" x="34.66875" y="210" text-anchor="middle" style="font-family: 'Open Sans', verdana, arial, sans-serif; font-size: 14px; fill: rgb(42, 63, 95); opacity: 1; font-weight: normal; white-space: pre;">wpm</text></g><g class="g-y2title"/><g class="g-y3title"/><g class="g-y4title"/><g class="g-y5title"/><g class="annotation" data-index="0" style="opacity: 1;"><g class="annotation-text-g" transform="rotate(0,129.68,91)"><g class="cursor-pointer" transform="translate(116,82)"><rect class="bg" x="0.5" y="0.5" width="26" height="17" style="stroke-width: 1px; stroke: rgb(0, 0, 0); stroke-opacity: 0; fill: rgb(0, 0, 0); fill-opacity: 0;"/><text class="annotation-text" text-anchor="middle" x="13.34375" y="13" style="font-family: 'Open Sans', verdana, arial, sans-serif; font-size: 12px; fill: rgb(42, 63, 95); fill-opacity: 1; white-space: pre;">time</text></g></g></g><g class="annotation" data-index="1" style="opacity: 1;"><g class="annotation-text-g" transform="rotate(0,239.84000000000003,91)"><g class="cursor-pointer" transform="translate(221,82)"><rect class="bg" x="0.5" y="0.5" width="36" height="17" style="stroke-width: 1px; stroke: rgb(0, 0, 0); stroke-opacity: 0; fill: rgb(0, 0, 0); fill-opacity: 0;"/><text class="annotation-text" text-anchor="middle" x="19.015625" y="13" style="font-family: 'Open Sans', verdana, arial, sans-serif; font-size: 12px; fill: rgb(42, 63, 95); fill-opacity: 1; white-space: pre;">words</text></g></g></g><g class="annotation" data-index="2" style="opacity: 1;"><g class="annotation-text-g" transform="rotate(0,350,91)"><g class="cursor-pointer" transform="translate(333,82)"><rect class="bg" x="0.5" y="0.5" width="33" height="17" style="stroke-width: 1px; stroke: rgb(0, 0, 0); stroke-opacity: 0; fill: rgb(0, 0, 0); fill-opacity: 0;"/><text class="annotation-text" text-anchor="middle" x="17.015625" y="13" style="font-family: 'Open Sans', verdana, arial, sans-serif; font-size: 12px; fill: rgb(42, 63, 95); fill-opacity: 1; white-space: pre;">quote</text></g></g></g><g class="annotation" data-index="3" style="opacity: 1;"><g class="annotation-text-g" transform="rotate(0,460.1600000000001,91)"><g class="cursor-pointer" transform="translate(439,82)"><rect class="bg" x="0.5" y="0.5" width="42" height="17" style="stroke-width: 1px; stroke: rgb(0, 0, 0); stroke-opacity: 0; fill: rgb(0, 0, 0); fill-opacity: 0;"/><text class="annotation-text" text-anchor="middle" x="21.34375" y="13" style="font-family: 'Open Sans', verdana, arial, sans-serif; font-size: 12px; fill: rgb(42, 63, 95); fill-opacity: 1; white-space: pre;">custom</text></g></g></g><g class="annotation" data-index="4" style="opacity: 1;"><g class="annotation-text-g" transform="rotate(0,570.3199999999999,91)"><g class="cursor-pointer" transform="translate(559,82)"><rect class="bg" x="0.5" y="0.5" width="22" height="17" style="stroke-width: 1px; stroke: rgb(0, 0, 0); stroke-opacity: 0; fill: rgb(0, 0, 0); fill-opacity: 0;"/><text class="annotation-text" text-anchor="middle" x="11.6875" y="13" style="font-family: 'Open Sans', verdana, arial, sans-serif; font-size: 12px; fill: rgb(42, 63, 95); fill-opacity: 1; white-space: pre;">zen</text></g></g></g></g></svg>